<svg width="40" height="40" viewBox="0 0 40 40" fill="none" xmlns="http://www.w3.org/2000/svg">
    <g clip-path="url(#clip0_125_273)">
        <path d="M0 20C0 8.95431 8.95431 0 20 0C31.0457 0 40 8.95431 40 20C40 31.0457 31.0457 40 20 40C8.95431 40 0 31.0457 0 20Z" fill="#F3F3F3"/>
        <rect x="-0.5" y="-0.5" width="41" height="41" rx="20.5" fill="#1A1A1A"/>
        <path d="M25.8955 23.9645C25.6916 24.4448 25.4397 24.9028 25.1438 25.3314C24.7484 25.9021 24.4237 26.2965 24.1748 26.516C23.7883 26.8746 23.373 27.0592 22.929 27.0696C22.6109 27.0696 22.2266 26.9781 21.7789 26.792C21.3298 26.6068 20.9175 26.516 20.5398 26.516C20.1444 26.516 19.7203 26.6068 19.266 26.792C18.8124 26.9781 18.4458 27.0755 18.1652 27.0845C17.7404 27.1031 17.3156 26.9141 16.8922 26.516C16.622 26.2779 16.284 25.8686 15.8783 25.2897C15.4439 24.6728 15.0868 23.9548 14.807 23.1385C14.5074 22.2553 14.3572 21.401 14.3572 20.5736C14.3572 19.6264 14.5597 18.8086 14.9653 18.124C15.2722 17.5864 15.7109 17.1377 16.2391 16.8211C16.76 16.5054 17.3547 16.3353 17.962 16.3285C18.3007 16.3285 18.7447 16.4342 19.2947 16.6425C19.8447 16.8509 20.1981 16.9565 20.352 16.9565C20.4683 16.9565 20.8593 16.8323 21.5249 16.586C22.153 16.3575 22.6831 16.263 23.1175 16.3002C24.2956 16.3962 25.1798 16.865 25.7681 17.7103C24.7152 18.3554 24.1947 19.258 24.205 20.4166C24.2138 21.3192 24.5385 22.07 25.1747 22.666C25.4559 22.938 25.7841 23.1556 26.1429 23.3082C26.0648 23.5366 25.9824 23.7546 25.8955 23.9645ZM23.1955 13.2264C23.1955 13.9333 22.9393 14.594 22.4305 15.2049C21.815 15.9312 21.0714 16.3516 20.2651 16.2854C20.2546 16.1965 20.2494 16.107 20.2497 16.0175C20.2497 15.3381 20.5412 14.6119 21.0618 14.0173C21.321 13.7167 21.6508 13.466 22.0506 13.2665C22.4497 13.0701 22.8267 12.9615 23.1816 12.9429C23.1911 13.0381 23.1955 13.1326 23.1955 13.2264Z" fill="#F3F3F3"/>
    </g>
    <defs>
        <clipPath id="clip0_125_273">
            <path d="M0 20C0 8.95431 8.95431 0 20 0C31.0457 0 40 8.95431 40 20C40 31.0457 31.0457 40 20 40C8.95431 40 0 31.0457 0 20Z" fill="white"/>
        </clipPath>
    </defs>
</svg>
