<svg width="40" height="40" viewBox="0 0 40 40" fill="none" xmlns="http://www.w3.org/2000/svg">
    <g clip-path="url(#clip0_124_263)">
        <path d="M0 20C0 8.95431 8.95431 0 20 0C31.0457 0 40 8.95431 40 20C40 31.0457 31.0457 40 20 40C8.95431 40 0 31.0457 0 20Z" fill="#F3F3F3"/>
        <rect x="-0.5" y="-0.5" width="41" height="41" rx="20.5" fill="#2D79ED"/>
        <path d="M24.4678 21.125L25.001 17.8674H21.6669V15.7535C21.6669 14.8623 22.1327 13.9936 23.6259 13.9936H25.1417V11.2201C25.1417 11.2201 23.7662 11 22.451 11C19.7053 11 17.9105 12.5602 17.9105 15.3847V17.8674H14.8584V21.125H17.9105V29H21.6669V21.125H24.4678Z" fill="#F3F3F3"/>
    </g>
    <defs>
        <clipPath id="clip0_124_263">
            <path d="M0 20C0 8.95431 8.95431 0 20 0C31.0457 0 40 8.95431 40 20C40 31.0457 31.0457 40 20 40C8.95431 40 0 31.0457 0 20Z" fill="white"/>
        </clipPath>
    </defs>
</svg>
