<svg width="40" height="40" viewBox="0 0 40 40" fill="none" xmlns="http://www.w3.org/2000/svg">
    <g clip-path="url(#clip0_129_14)">
        <path d="M0 20C0 8.95431 8.95431 0 20 0V0C31.0457 0 40 8.95431 40 20V20C40 31.0457 31.0457 40 20 40V40C8.95431 40 0 31.0457 0 20V20Z" fill="#F3F3F3"/>
        <rect x="-0.5" y="-0.5" width="41" height="41" rx="20.5" fill="#E7413B"/>
        <g clip-path="url(#clip1_129_14)">
            <path d="M26.6019 18.7383C26.6835 19.2081 26.7242 19.6841 26.7235 20.161C26.7235 22.2908 25.9623 24.0915 24.6375 25.3104H24.6393C23.4808 26.3805 21.8883 27 20 27C18.1435 27 16.363 26.2625 15.0503 24.9498C13.7375 23.637 13 21.8565 13 20C13 18.1435 13.7375 16.363 15.0503 15.0503C16.363 13.7375 18.1435 13 20 13C21.7377 12.9797 23.4159 13.6325 24.683 14.8218L22.6845 16.8203C21.9621 16.1316 20.9979 15.7545 20 15.7703C18.1739 15.7703 16.6225 17.0023 16.0695 18.6613C15.7763 19.5306 15.7763 20.4721 16.0695 21.3414H16.0721C16.6278 22.9978 18.1765 24.2298 20.0026 24.2298C20.9459 24.2298 21.7561 23.9883 22.3844 23.5613H22.3818C22.7465 23.3196 23.0586 23.0065 23.2991 22.6409C23.5395 22.2753 23.7034 21.8648 23.7809 21.4341H20V18.7391H26.6019V18.7383Z" fill="#F3F3F3"/>
        </g>
    </g>
    <defs>
        <clipPath id="clip0_129_14">
            <path d="M0 20C0 8.95431 8.95431 0 20 0V0C31.0457 0 40 8.95431 40 20V20C40 31.0457 31.0457 40 20 40V40C8.95431 40 0 31.0457 0 20V20Z" fill="white"/>
        </clipPath>
        <clipPath id="clip1_129_14">
            <rect width="14" height="14" fill="white" transform="translate(13 13)"/>
        </clipPath>
    </defs>
</svg>
